#N canvas 62 420 932 597 10;
#X obj 79 99 s oct;
#X obj 79 11 loadbang;
#X obj 79 72 * 12;
#X obj 13 13 loadbang;
#X msg 13 35 80;
#X obj 13 77 vsl 30 60 0 100 0 0 vol empty vol 14 -9 0 10 -4034 -1
-1 4720 1;
#X obj 156 11 r vol;
#X floatatom 156 33 5 0 0 0 - - -;
#X obj 283 10 key;
#X floatatom 283 33 5 0 0 0 - - -;
#X floatatom 203 33 5 0 0 0 - - -;
#X obj 203 11 r oct;
#N canvas 49 23 559 544 gui 0;
#X obj 31 349 tgl 30 0 empty q empty 17 7 0 10 -1 -262144 -262144 0
1;
#X obj 19 314 tgl 30 0 empty one empty 13 13 0 10 -262144 -1 -1 0 1
;
#X obj 38 384 tgl 30 0 empty a empty 17 7 0 10 -262144 -1 -1 0 1;
#X obj 44 418 tgl 30 0 empty z empty 17 7 0 10 -1 -262144 -262144 0
1;
#X obj 54 314 tgl 30 0 empty two empty 17 7 0 10 -262144 -1 -1 0 1
;
#X obj 66 349 tgl 30 0 empty w empty 17 7 0 10 -262144 -1 -1 0 1;
#X obj 73 384 tgl 30 0 empty s empty 17 7 0 10 -1 -262144 -262144 0
1;
#X obj 80 418 tgl 30 0 empty x empty 17 7 0 10 -262144 -1 -1 0 1;
#X obj 90 314 tgl 30 0 empty three empty 17 7 0 10 -1 -262144 -262144
0 1;
#X obj 101 349 tgl 30 0 empty e empty 17 7 0 10 -262144 -1 -1 0 1;
#X obj 109 384 tgl 30 0 empty d empty 17 7 0 10 -1 -262144 -262144
0 1;
#X obj 115 418 tgl 30 0 empty c empty 17 7 0 10 -262144 -1 -1 0 1;
#X obj 146 349 tgl 30 0 empty r empty 17 7 0 10 -1 -262144 -262144
0 1;
#X obj 134 314 tgl 30 0 empty four empty 13 13 0 10 -262144 -1 -1 0
1;
#X obj 153 384 tgl 30 0 empty f empty 17 7 0 10 -262144 -1 -1 0 1;
#X obj 159 418 tgl 30 0 empty v empty 17 7 0 10 -1 -262144 -262144
0 1;
#X obj 169 314 tgl 30 0 empty five empty 17 7 0 10 -262144 -1 -1 0
1;
#X obj 181 349 tgl 30 0 empty t empty 17 7 0 10 -262144 -1 -1 0 1;
#X obj 188 384 tgl 30 0 empty g empty 17 7 0 10 -1 -262144 -262144
0 1;
#X obj 195 418 tgl 30 0 empty b empty 17 7 0 10 -262144 -1 -1 0 1;
#X obj 205 314 tgl 30 0 empty six empty 17 7 0 10 -1 -262144 -262144
0 1;
#X obj 216 349 tgl 30 0 empty y empty 17 7 0 10 -262144 -1 -1 0 1;
#X obj 224 384 tgl 30 0 empty h empty 17 7 0 10 -1 -262144 -262144
0 1;
#X obj 230 418 tgl 30 0 empty n empty 17 7 0 10 -262144 -1 -1 0 1;
#X obj 262 349 tgl 30 0 empty u empty 17 7 0 10 -1 -262144 -262144
0 1;
#X obj 250 314 tgl 30 0 empty seven empty 13 13 0 10 -262144 -1 -1
0 1;
#X obj 269 384 tgl 30 0 empty j empty 17 7 0 10 -262144 -1 -1 0 1;
#X obj 275 418 tgl 30 0 empty m empty 17 7 0 10 -1 -262144 -262144
0 1;
#X obj 285 314 tgl 30 0 empty eight empty 17 7 0 10 -262144 -1 -1 0
1;
#X obj 297 349 tgl 30 0 empty i empty 17 7 0 10 -262144 -1 -1 0 1;
#X obj 304 384 tgl 30 0 empty k empty 17 7 0 10 -1 -262144 -262144
0 1;
#X obj 311 418 tgl 30 0 empty comma empty 17 7 0 10 -262144 -1 -1 0
1;
#X obj 321 314 tgl 30 0 empty nine empty 17 7 0 10 -1 -262144 -262144
0 1;
#X obj 332 349 tgl 30 0 empty o empty 17 7 0 10 -262144 -1 -1 0 1;
#X obj 340 384 tgl 30 0 empty l empty 17 7 0 10 -1 -262144 -262144
0 1;
#X obj 346 418 tgl 30 0 empty period empty 17 7 0 10 -262144 -1 -1
0 1;
#X obj 380 349 tgl 30 0 empty p empty 17 7 0 10 -1 -262144 -262144
0 1;
#X obj 368 314 tgl 30 0 empty zero empty 13 13 0 10 -262144 -1 -1 0
1;
#X obj 387 384 tgl 30 0 empty semi empty 17 7 0 10 -262144 -1 -1 0
1;
#X obj 393 418 tgl 30 0 empty fslash empty 17 7 0 10 -1 -262144 -262144
0 1;
#X obj 403 314 tgl 30 0 empty dash empty 17 7 0 10 -262144 -1 -1 0
1;
#X obj 415 349 tgl 30 0 empty bracka empty 17 7 0 10 -262144 -1 -1
0 1;
#X obj 422 384 tgl 30 0 empty quote empty 17 7 0 10 -1 -262144 -262144
0 1;
#X obj 439 314 tgl 30 0 empty equal empty 17 7 0 10 -1 -262144 -262144
0 1;
#X obj 450 349 tgl 30 0 empty brackb empty 17 7 0 10 -262144 -1 -1
0 1;
#X obj 458 384 tgl 30 0 empty enter empty 17 7 0 10 -1 -262144 -262144
0 1;
#X coords 0 -1 1 1 500 160 2 5 300;
#X restore 10 412 pd gui;
#N canvas 1138 394 687 629 innards 0;
#N canvas 180 23 782 399 onegui 0;
#X obj 17 8 key;
#X msg 17 119 1;
#X msg 37 144 1;
#X msg 59 120 1;
#X msg 82 144 1;
#X msg 103 122 1;
#X msg 125 144 1;
#X msg 146 122 1;
#X msg 168 144 1;
#X msg 189 121 1;
#X msg 210 144 1;
#X msg 230 119 1;
#X msg 254 141 1;
#X msg 358 124 0;
#X msg 399 125 0;
#X msg 378 149 0;
#X msg 422 149 0;
#X msg 440 123 0;
#X msg 462 149 0;
#X msg 482 127 0;
#X msg 504 149 0;
#X msg 524 126 0;
#X msg 543 149 0;
#X msg 565 123 0;
#X msg 585 146 0;
#X obj 75 240 tgl 15 0 empty empty empty 17 7 0 10 -262144 -1 -1 0
1;
#X obj 90 240 tgl 15 0 empty empty empty 17 7 0 10 -262144 -1 -1 0
1;
#X obj 105 240 tgl 15 0 empty empty empty 17 7 0 10 -262144 -1 -1 0
1;
#X obj 120 240 tgl 15 0 empty empty empty 17 7 0 10 -262144 -1 -1 0
1;
#X obj 135 240 tgl 15 0 empty empty empty 17 7 0 10 -262144 -1 -1 0
1;
#X obj 150 240 tgl 15 0 empty empty empty 17 7 0 10 -262144 -1 -1 0
1;
#X obj 165 240 tgl 15 0 empty empty empty 17 7 0 10 -262144 -1 -1 0
1;
#X obj 180 240 tgl 15 0 empty empty empty 17 7 0 10 -262144 -1 -1 0
1;
#X obj 195 240 tgl 15 0 empty empty empty 17 7 0 10 -262144 -1 -1 0
1;
#X obj 210 240 tgl 15 0 empty empty empty 17 7 0 10 -262144 -1 -1 0
1;
#X obj 225 240 tgl 15 0 empty empty empty 17 7 0 10 -262144 -1 -1 0
1;
#X obj 240 240 tgl 15 0 empty empty empty 17 7 0 10 -262144 -1 -1 0
1;
#X obj 358 16 keyup;
#X obj 17 339 outlet;
#X obj 38 364 outlet;
#X obj 65 338 outlet;
#X obj 96 367 outlet;
#X obj 129 343 outlet;
#X obj 150 368 outlet;
#X obj 177 342 outlet;
#X obj 208 371 outlet;
#X obj 235 344 outlet;
#X obj 260 371 outlet;
#X obj 283 343 outlet;
#X obj 17 92 select 49 50 51 52 53 54 55 56 57 48 45 61 8;
#X obj 358 97 select 49 50 51 52 53 54 55 56 57 48 45 61 8;
#X text 234 64 1 to del;
#X obj 318 374 outlet;
#X msg 277 121 1;
#X msg 605 123 0;
#X obj 255 240 tgl 15 0 empty empty empty 17 7 0 10 -262144 -1 -1 0
1;
#X obj 350 350 outlet;
#X obj 405 331 s one;
#X obj 424 353 s two;
#X obj 451 332 s three;
#X obj 489 355 s four;
#X obj 512 335 s five;
#X obj 546 355 s six;
#X obj 561 335 s seven;
#X obj 597 355 s eight;
#X obj 619 335 s nine;
#X obj 652 356 s zero;
#X obj 673 334 s dash;
#X obj 708 358 s equal;
#X obj 739 335 s del;
#X connect 0 0 49 0;
#X connect 1 0 25 0;
#X connect 2 0 26 0;
#X connect 3 0 27 0;
#X connect 4 0 28 0;
#X connect 5 0 29 0;
#X connect 6 0 30 0;
#X connect 7 0 31 0;
#X connect 8 0 32 0;
#X connect 9 0 33 0;
#X connect 10 0 34 0;
#X connect 11 0 35 0;
#X connect 12 0 36 0;
#X connect 13 0 25 0;
#X connect 14 0 27 0;
#X connect 15 0 26 0;
#X connect 16 0 28 0;
#X connect 17 0 29 0;
#X connect 18 0 30 0;
#X connect 19 0 31 0;
#X connect 20 0 32 0;
#X connect 21 0 33 0;
#X connect 22 0 34 0;
#X connect 23 0 35 0;
#X connect 24 0 36 0;
#X connect 25 0 38 0;
#X connect 25 0 57 0;
#X connect 26 0 39 0;
#X connect 26 0 58 0;
#X connect 27 0 40 0;
#X connect 27 0 59 0;
#X connect 28 0 41 0;
#X connect 28 0 60 0;
#X connect 29 0 42 0;
#X connect 29 0 61 0;
#X connect 30 0 43 0;
#X connect 30 0 62 0;
#X connect 31 0 44 0;
#X connect 31 0 63 0;
#X connect 32 0 45 0;
#X connect 32 0 64 0;
#X connect 33 0 46 0;
#X connect 33 0 65 0;
#X connect 34 0 47 0;
#X connect 34 0 66 0;
#X connect 35 0 48 0;
#X connect 35 0 67 0;
#X connect 36 0 52 0;
#X connect 36 0 68 0;
#X connect 37 0 50 0;
#X connect 49 0 1 0;
#X connect 49 1 2 0;
#X connect 49 2 3 0;
#X connect 49 3 4 0;
#X connect 49 4 5 0;
#X connect 49 5 6 0;
#X connect 49 6 7 0;
#X connect 49 7 8 0;
#X connect 49 8 9 0;
#X connect 49 9 10 0;
#X connect 49 10 11 0;
#X connect 49 11 12 0;
#X connect 49 12 53 0;
#X connect 50 0 13 0;
#X connect 50 1 15 0;
#X connect 50 2 14 0;
#X connect 50 3 16 0;
#X connect 50 4 17 0;
#X connect 50 5 18 0;
#X connect 50 6 19 0;
#X connect 50 7 20 0;
#X connect 50 8 21 0;
#X connect 50 9 22 0;
#X connect 50 10 23 0;
#X connect 50 11 24 0;
#X connect 50 12 54 0;
#X connect 53 0 55 0;
#X connect 54 0 55 0;
#X connect 55 0 56 0;
#X connect 55 0 69 0;
#X coords 0 -1 1 1 255 20 1 15 240;
#X restore 32 12 pd onegui;
#N canvas 404 280 749 409 a 0;
#X obj 37 320 outlet;
#X obj 58 345 outlet;
#X obj 85 319 outlet;
#X obj 116 348 outlet;
#X obj 149 324 outlet;
#X obj 170 349 outlet;
#X obj 197 323 outlet;
#X obj 228 352 outlet;
#X obj 255 325 outlet;
#X obj 280 352 outlet;
#X obj 303 324 outlet;
#X obj 338 355 outlet;
#X obj 40 38 key;
#X msg 40 118 1;
#X msg 66 144 1;
#X msg 90 119 1;
#X msg 116 145 1;
#X msg 141 123 1;
#X msg 166 145 1;
#X msg 192 124 1;
#X msg 217 144 1;
#X msg 242 122 1;
#X msg 268 143 1;
#X msg 293 119 1;
#X msg 363 123 0;
#X msg 404 124 0;
#X msg 383 148 0;
#X msg 427 148 0;
#X msg 445 122 0;
#X msg 467 148 0;
#X msg 487 126 0;
#X msg 509 148 0;
#X msg 529 125 0;
#X msg 548 148 0;
#X msg 570 122 0;
#X obj 117 240 tgl 15 0 empty empty empty 17 7 0 10 -262144 -1 -1 0
1;
#X obj 132 240 tgl 15 0 empty empty empty 17 7 0 10 -262144 -1 -1 0
1;
#X obj 147 240 tgl 15 0 empty empty empty 17 7 0 10 -262144 -1 -1 0
1;
#X obj 162 240 tgl 15 0 empty empty empty 17 7 0 10 -262144 -1 -1 0
1;
#X obj 177 240 tgl 15 0 empty empty empty 17 7 0 10 -262144 -1 -1 0
1;
#X obj 192 240 tgl 15 0 empty empty empty 17 7 0 10 -262144 -1 -1 0
1;
#X obj 207 240 tgl 15 0 empty empty empty 17 7 0 10 -262144 -1 -1 0
1;
#X obj 221 240 tgl 15 0 empty empty empty 17 7 0 10 -262144 -1 -1 0
1;
#X obj 235 240 tgl 15 0 empty empty empty 17 7 0 10 -262144 -1 -1 0
1;
#X obj 250 240 tgl 15 0 empty empty empty 17 7 0 10 -262144 -1 -1 0
1;
#X obj 265 240 tgl 15 0 empty empty empty 17 7 0 10 -262144 -1 -1 0
1;
#X obj 363 43 keyup;
#X text 280 64 a to ';
#X obj 40 91 select 97 115 100 102 103 104 106 107 108 59 39 10;
#X obj 363 96 select 97 115 100 102 103 104 106 107 108 59 39 10;
#X msg 327 121 1;
#X msg 604 124 0;
#X obj 280 240 tgl 15 0 empty empty empty 17 7 0 10 -262144 -1 -1 0
1;
#X obj 451 314 s a;
#X obj 470 342 s s;
#X obj 487 314 s d;
#X obj 506 342 s f;
#X obj 519 315 s g;
#X obj 542 343 s h;
#X obj 547 316 s j;
#X obj 574 343 s k;
#X obj 587 316 s l;
#X obj 668 348 s enter;
#X obj 623 317 s quote;
#X obj 612 346 s semi;
#X connect 12 0 48 0;
#X connect 13 0 35 0;
#X connect 14 0 36 0;
#X connect 15 0 37 0;
#X connect 16 0 38 0;
#X connect 17 0 39 0;
#X connect 18 0 40 0;
#X connect 19 0 41 0;
#X connect 20 0 42 0;
#X connect 21 0 43 0;
#X connect 22 0 44 0;
#X connect 23 0 45 0;
#X connect 24 0 35 0;
#X connect 25 0 37 0;
#X connect 26 0 36 0;
#X connect 27 0 38 0;
#X connect 28 0 39 0;
#X connect 29 0 40 0;
#X connect 30 0 41 0;
#X connect 31 0 42 0;
#X connect 32 0 43 0;
#X connect 33 0 44 0;
#X connect 34 0 45 0;
#X connect 35 0 0 0;
#X connect 35 0 53 0;
#X connect 36 0 1 0;
#X connect 36 0 54 0;
#X connect 37 0 2 0;
#X connect 37 0 55 0;
#X connect 38 0 3 0;
#X connect 38 0 56 0;
#X connect 39 0 4 0;
#X connect 39 0 57 0;
#X connect 40 0 5 0;
#X connect 40 0 58 0;
#X connect 41 0 6 0;
#X connect 41 0 59 0;
#X connect 42 0 7 0;
#X connect 42 0 60 0;
#X connect 43 0 8 0;
#X connect 43 0 61 0;
#X connect 44 0 9 0;
#X connect 44 0 64 0;
#X connect 45 0 10 0;
#X connect 45 0 63 0;
#X connect 46 0 49 0;
#X connect 48 0 13 0;
#X connect 48 1 14 0;
#X connect 48 2 15 0;
#X connect 48 3 16 0;
#X connect 48 4 17 0;
#X connect 48 5 18 0;
#X connect 48 6 19 0;
#X connect 48 7 20 0;
#X connect 48 8 21 0;
#X connect 48 9 22 0;
#X connect 48 10 23 0;
#X connect 48 11 50 0;
#X connect 49 0 24 0;
#X connect 49 1 26 0;
#X connect 49 2 25 0;
#X connect 49 3 27 0;
#X connect 49 4 28 0;
#X connect 49 5 29 0;
#X connect 49 6 30 0;
#X connect 49 7 31 0;
#X connect 49 8 32 0;
#X connect 49 9 33 0;
#X connect 49 10 34 0;
#X connect 49 11 51 0;
#X connect 50 0 52 0;
#X connect 51 0 52 0;
#X connect 52 0 11 0;
#X connect 52 0 62 0;
#X coords 0 -1 1 1 280 20 1 15 240;
#X restore 23 273 pd a;
#N canvas 70 128 746 564 z 0;
#X obj 46 314 outlet;
#X obj 67 339 outlet;
#X obj 94 313 outlet;
#X obj 125 342 outlet;
#X obj 158 318 outlet;
#X obj 179 343 outlet;
#X obj 206 317 outlet;
#X obj 237 346 outlet;
#X obj 264 319 outlet;
#X obj 289 346 outlet;
#X obj 48 49 key;
#X msg 49 112 1;
#X msg 75 138 1;
#X msg 99 113 1;
#X msg 125 139 1;
#X msg 150 117 1;
#X msg 175 139 1;
#X msg 201 118 1;
#X msg 226 138 1;
#X msg 251 116 1;
#X msg 277 137 1;
#X msg 372 117 0;
#X msg 413 118 0;
#X msg 392 142 0;
#X msg 436 142 0;
#X msg 454 116 0;
#X msg 476 142 0;
#X msg 496 120 0;
#X msg 518 142 0;
#X msg 538 119 0;
#X msg 557 142 0;
#X obj 110 240 tgl 15 0 empty empty empty 17 7 0 10 -262144 -1 -1 0
1;
#X obj 125 240 tgl 15 0 empty empty empty 17 7 0 10 -262144 -1 -1 0
1;
#X obj 140 240 tgl 15 0 empty empty empty 17 7 0 10 -262144 -1 -1 0
1;
#X obj 155 240 tgl 15 0 empty empty empty 17 7 0 10 -262144 -1 -1 0
1;
#X obj 170 240 tgl 15 0 empty empty empty 17 7 0 10 -262144 -1 -1 0
1;
#X obj 185 240 tgl 15 0 empty empty empty 17 7 0 10 -262144 -1 -1 0
1;
#X obj 200 240 tgl 15 0 empty empty empty 17 7 0 10 -262144 -1 -1 0
1;
#X obj 215 240 tgl 15 0 empty empty empty 17 7 0 10 -262144 -1 -1 0
1;
#X obj 230 240 tgl 15 0 empty empty empty 17 7 0 10 -262144 -1 -1 0
1;
#X obj 245 240 tgl 15 0 empty empty empty 17 7 0 10 -262144 -1 -1 0
1;
#X obj 372 64 keyup;
#X obj 372 90 select 122 120 99 118 98 110 109 44 46 47;
#X obj 460 308 s z;
#X obj 479 336 s x;
#X obj 496 308 s c;
#X obj 515 336 s v;
#X obj 528 309 s b;
#X obj 551 337 s n;
#X obj 556 310 s m;
#X obj 583 337 s comma;
#X obj 596 310 s period;
#X obj 641 337 s fslash;
#X obj 49 85 select 122 120 99 118 98 110 109 44 46 47;
#X connect 10 0 53 0;
#X connect 11 0 31 0;
#X connect 12 0 32 0;
#X connect 13 0 33 0;
#X connect 14 0 34 0;
#X connect 15 0 35 0;
#X connect 16 0 36 0;
#X connect 17 0 37 0;
#X connect 18 0 38 0;
#X connect 19 0 39 0;
#X connect 20 0 40 0;
#X connect 21 0 31 0;
#X connect 22 0 33 0;
#X connect 23 0 32 0;
#X connect 24 0 34 0;
#X connect 25 0 35 0;
#X connect 26 0 36 0;
#X connect 27 0 37 0;
#X connect 28 0 38 0;
#X connect 29 0 39 0;
#X connect 30 0 40 0;
#X connect 31 0 0 0;
#X connect 31 0 43 0;
#X connect 32 0 1 0;
#X connect 32 0 44 0;
#X connect 33 0 2 0;
#X connect 33 0 45 0;
#X connect 34 0 3 0;
#X connect 34 0 46 0;
#X connect 35 0 4 0;
#X connect 35 0 47 0;
#X connect 36 0 5 0;
#X connect 36 0 48 0;
#X connect 37 0 6 0;
#X connect 37 0 49 0;
#X connect 38 0 7 0;
#X connect 38 0 50 0;
#X connect 39 0 8 0;
#X connect 39 0 51 0;
#X connect 40 0 9 0;
#X connect 40 0 52 0;
#X connect 41 0 42 0;
#X connect 42 0 21 0;
#X connect 42 1 23 0;
#X connect 42 2 22 0;
#X connect 42 3 24 0;
#X connect 42 4 25 0;
#X connect 42 5 26 0;
#X connect 42 6 27 0;
#X connect 42 7 28 0;
#X connect 42 8 29 0;
#X connect 42 9 30 0;
#X connect 53 0 11 0;
#X connect 53 1 12 0;
#X connect 53 2 13 0;
#X connect 53 3 14 0;
#X connect 53 4 15 0;
#X connect 53 5 16 0;
#X connect 53 6 17 0;
#X connect 53 7 18 0;
#X connect 53 8 19 0;
#X connect 53 9 20 0;
#X coords 0 -1 1 1 245 20 1 15 240;
#X restore 18 441 pd z;
#X obj 517 434 noteout 1;
#N canvas 180 23 782 399 qgui 0;
#X obj 17 8 key;
#X msg 17 119 1;
#X msg 37 144 1;
#X msg 59 120 1;
#X msg 82 144 1;
#X msg 103 122 1;
#X msg 125 144 1;
#X msg 146 122 1;
#X msg 168 144 1;
#X msg 189 121 1;
#X msg 210 144 1;
#X msg 230 119 1;
#X msg 254 141 1;
#X msg 358 124 0;
#X msg 399 125 0;
#X msg 378 149 0;
#X msg 422 149 0;
#X msg 440 123 0;
#X msg 462 149 0;
#X msg 482 127 0;
#X msg 504 149 0;
#X msg 524 126 0;
#X msg 543 149 0;
#X msg 565 123 0;
#X msg 585 146 0;
#X obj 75 240 tgl 15 0 empty empty empty 17 7 0 10 -262144 -1 -1 0
1;
#X obj 90 240 tgl 15 0 empty empty empty 17 7 0 10 -262144 -1 -1 0
1;
#X obj 105 240 tgl 15 0 empty empty empty 17 7 0 10 -262144 -1 -1 0
1;
#X obj 120 240 tgl 15 0 empty empty empty 17 7 0 10 -262144 -1 -1 0
1;
#X obj 135 240 tgl 15 0 empty empty empty 17 7 0 10 -262144 -1 -1 0
1;
#X obj 150 240 tgl 15 0 empty empty empty 17 7 0 10 -262144 -1 -1 0
1;
#X obj 165 240 tgl 15 0 empty empty empty 17 7 0 10 -262144 -1 -1 0
1;
#X obj 180 240 tgl 15 0 empty empty empty 17 7 0 10 -262144 -1 -1 0
1;
#X obj 195 240 tgl 15 0 empty empty empty 17 7 0 10 -262144 -1 -1 0
1;
#X obj 210 240 tgl 15 0 empty empty empty 17 7 0 10 -262144 -1 -1 0
1;
#X obj 225 240 tgl 15 0 empty empty empty 17 7 0 10 -262144 -1 -1 0
1;
#X obj 240 240 tgl 15 0 empty empty empty 17 7 0 10 -262144 -1 -1 0
1;
#X obj 358 16 keyup;
#X obj 17 339 outlet;
#X obj 38 364 outlet;
#X obj 65 338 outlet;
#X obj 96 367 outlet;
#X obj 129 343 outlet;
#X obj 150 368 outlet;
#X obj 177 342 outlet;
#X obj 208 371 outlet;
#X obj 235 344 outlet;
#X obj 260 371 outlet;
#X obj 283 343 outlet;
#X text 234 64 1 to del;
#X obj 318 374 outlet;
#X obj 17 92 select 113 119 101 114 116 121 117 105 111 112 91 93;
#X obj 358 97 select 113 119 101 114 116 121 117 105 111 112 91 93
;
#X obj 71 274 s q;
#X obj 90 302 s w;
#X obj 107 274 s e;
#X obj 126 302 s r;
#X obj 139 275 s t;
#X obj 162 303 s y;
#X obj 167 276 s u;
#X obj 194 303 s i;
#X obj 207 276 s o;
#X obj 232 306 s p;
#X obj 243 277 s bracka;
#X obj 288 308 s brackb;
#X connect 0 0 51 0;
#X connect 1 0 25 0;
#X connect 2 0 26 0;
#X connect 3 0 27 0;
#X connect 4 0 28 0;
#X connect 5 0 29 0;
#X connect 6 0 30 0;
#X connect 7 0 31 0;
#X connect 8 0 32 0;
#X connect 9 0 33 0;
#X connect 10 0 34 0;
#X connect 11 0 35 0;
#X connect 12 0 36 0;
#X connect 13 0 25 0;
#X connect 14 0 27 0;
#X connect 15 0 26 0;
#X connect 16 0 28 0;
#X connect 17 0 29 0;
#X connect 18 0 30 0;
#X connect 19 0 31 0;
#X connect 20 0 32 0;
#X connect 21 0 33 0;
#X connect 22 0 34 0;
#X connect 23 0 35 0;
#X connect 24 0 36 0;
#X connect 25 0 38 0;
#X connect 25 0 53 0;
#X connect 26 0 39 0;
#X connect 26 0 54 0;
#X connect 27 0 40 0;
#X connect 27 0 55 0;
#X connect 28 0 41 0;
#X connect 28 0 56 0;
#X connect 29 0 42 0;
#X connect 29 0 57 0;
#X connect 30 0 43 0;
#X connect 30 0 58 0;
#X connect 31 0 44 0;
#X connect 31 0 59 0;
#X connect 32 0 45 0;
#X connect 32 0 60 0;
#X connect 33 0 46 0;
#X connect 33 0 61 0;
#X connect 34 0 47 0;
#X connect 34 0 62 0;
#X connect 35 0 48 0;
#X connect 35 0 63 0;
#X connect 36 0 50 0;
#X connect 36 0 64 0;
#X connect 37 0 52 0;
#X connect 51 0 1 0;
#X connect 51 1 2 0;
#X connect 51 2 3 0;
#X connect 51 3 4 0;
#X connect 51 4 5 0;
#X connect 51 5 6 0;
#X connect 51 6 7 0;
#X connect 51 7 8 0;
#X connect 51 8 9 0;
#X connect 51 9 10 0;
#X connect 51 10 11 0;
#X connect 51 11 12 0;
#X connect 52 0 13 0;
#X connect 52 1 15 0;
#X connect 52 2 14 0;
#X connect 52 3 16 0;
#X connect 52 4 17 0;
#X connect 52 5 18 0;
#X connect 52 6 19 0;
#X connect 52 7 20 0;
#X connect 52 8 21 0;
#X connect 52 9 22 0;
#X connect 52 10 23 0;
#X connect 52 11 24 0;
#X coords 0 -1 1 1 240 20 1 15 240;
#X restore 31 132 pd qgui;
#X obj 516 401 r noteout;
#X obj 32 45 noteFormatter 0;
#X obj 438 492 print;
#X obj 32 158 noteFormatter 1;
#X obj 52 65 noteFormatter 4;
#X obj 52 178 noteFormatter 5;
#X obj 72 85 noteFormatter 8;
#X obj 73 198 noteFormatter 9;
#X obj 94 107 noteFormatter 12;
#X obj 93 221 noteFormatter 13;
#X obj 136 45 noteFormatter 16;
#X obj 156 65 noteFormatter 20;
#X obj 176 85 noteFormatter 24;
#X obj 198 107 noteFormatter 28;
#X obj 243 45 noteFormatter 32;
#X obj 263 65 noteFormatter 36;
#X obj 283 85 noteFormatter 40;
#X obj 305 107 noteFormatter 44;
#X obj 348 45 noteFormatter 48;
#X obj 132 158 noteFormatter 17;
#X obj 152 178 noteFormatter 21;
#X obj 173 198 noteFormatter 25;
#X obj 193 221 noteFormatter 29;
#X obj 242 158 noteFormatter 33;
#X obj 283 198 noteFormatter 41;
#X obj 262 178 noteFormatter 37;
#X obj 303 221 noteFormatter 45;
#X obj 23 328 noteFormatter 2;
#X obj 43 348 noteFormatter 6;
#X obj 64 368 noteFormatter 10;
#X obj 84 391 noteFormatter 14;
#X obj 133 328 noteFormatter 18;
#X obj 153 348 noteFormatter 22;
#X obj 174 368 noteFormatter 26;
#X obj 194 391 noteFormatter 30;
#X obj 243 328 noteFormatter 34;
#X obj 263 348 noteFormatter 38;
#X obj 284 368 noteFormatter 42;
#X obj 304 391 noteFormatter 46;
#X obj 18 488 noteFormatter 3;
#X obj 38 508 noteFormatter 7;
#X obj 59 528 noteFormatter 11;
#X obj 79 551 noteFormatter 15;
#X obj 128 488 noteFormatter 19;
#X obj 148 508 noteFormatter 23;
#X obj 169 528 noteFormatter 27;
#X obj 189 551 noteFormatter 31;
#X obj 238 488 noteFormatter 35;
#X obj 258 508 noteFormatter 39;
#X connect 0 0 6 0;
#X connect 0 1 9 0;
#X connect 0 2 11 0;
#X connect 0 3 13 0;
#X connect 0 4 15 0;
#X connect 0 5 16 0;
#X connect 0 6 17 0;
#X connect 0 7 18 0;
#X connect 0 8 19 0;
#X connect 0 9 20 0;
#X connect 0 10 21 0;
#X connect 0 11 22 0;
#X connect 0 12 23 0;
#X connect 1 0 32 0;
#X connect 1 1 33 0;
#X connect 1 2 34 0;
#X connect 1 3 35 0;
#X connect 1 4 36 0;
#X connect 1 5 37 0;
#X connect 1 6 38 0;
#X connect 1 7 39 0;
#X connect 1 8 40 0;
#X connect 1 9 41 0;
#X connect 1 10 42 0;
#X connect 1 11 43 0;
#X connect 2 0 44 0;
#X connect 2 1 45 0;
#X connect 2 2 46 0;
#X connect 2 3 47 0;
#X connect 2 4 48 0;
#X connect 2 5 49 0;
#X connect 2 6 50 0;
#X connect 2 7 51 0;
#X connect 2 8 52 0;
#X connect 2 9 53 0;
#X connect 4 0 8 0;
#X connect 4 1 10 0;
#X connect 4 2 12 0;
#X connect 4 3 14 0;
#X connect 4 4 24 0;
#X connect 4 5 25 0;
#X connect 4 6 26 0;
#X connect 4 7 27 0;
#X connect 4 8 28 0;
#X connect 4 9 30 0;
#X connect 4 10 29 0;
#X connect 4 11 31 0;
#X connect 5 0 3 0;
#X connect 5 0 7 0;
#X restore 17 183 pd innards;
#X floatatom 745 376 5 0 0 0 - - -;
#X obj 745 418 s pshift;
#X obj 439 333 dac~;
#X floatatom 477 217 5 0 0 0 - - -;
#X obj 438 217 tgl 15 0 empty empty empty 17 7 0 10 -262144 -1 -1 0
1;
#X obj 439 256 cycleunitC 48;
#X obj 796 269 vsl 15 128 -50 51 0 0 empty empty empty 0 -9 0 10 -262144
-1 -1 0 1;
#X obj 795 231 line;
#X msg 795 197 0 100;
#X obj 669 28 cursor;
#X obj 669 96 route x y;
#X obj 671 4 tgl 15 0 empty empty empty 17 7 0 10 -262144 -1 -1 0 1
;
#X floatatom 669 125 5 0 0 0 - - -;
#X floatatom 709 125 5 0 0 0 - - -;
#X obj 669 68 route motion button;
#X obj 759 102 route 1;
#X obj 758 130 tgl 15 0 empty empty empty 17 7 0 10 -262144 -1 -1 0
1;
#X obj 710 169 / 799;
#X obj 709 196 - 0.5;
#X floatatom 709 257 10 0 0 0 - - -;
#X obj 792 154 metro 100;
#X obj 350 21 basicadc;
#X obj 708 224 * -40;
#X text 140 179 0 4 8 0 4 8 0 4 8 0 4 8 \; 1 5 9 1 5 9 1 5 9 1 5 9
\; 2 6 t 2 6 t 2 6 t 2 6 t \; 3 7 e 3 7 e 3 7 e 3 7 e \;;
#X obj 154 89 s vel;
#X msg 154 64 80;
#X msg 79 37 4;
#X obj 610 397 ctlout;
#X msg 114 33 3;
#X connect 1 0 40 0;
#X connect 2 0 0 0;
#X connect 3 0 4 0;
#X connect 4 0 5 0;
#X connect 6 0 7 0;
#X connect 8 0 9 0;
#X connect 11 0 10 0;
#X connect 14 0 15 0;
#X connect 17 0 19 1;
#X connect 18 0 19 0;
#X connect 19 0 16 0;
#X connect 20 0 15 0;
#X connect 21 0 20 0;
#X connect 22 0 21 0;
#X connect 23 0 28 0;
#X connect 24 0 26 0;
#X connect 24 1 27 0;
#X connect 25 0 23 0;
#X connect 27 0 31 0;
#X connect 28 0 24 0;
#X connect 28 1 29 0;
#X connect 29 0 30 0;
#X connect 30 0 34 0;
#X connect 31 0 32 0;
#X connect 32 0 36 0;
#X connect 34 0 22 0;
#X connect 36 0 20 0;
#X connect 36 0 33 0;
#X connect 39 0 38 0;
#X connect 40 0 2 0;
#X connect 42 0 2 0;
