#N canvas 328 23 932 597 10;
#X obj 79 99 s oct;
#X obj 79 11 loadbang;
#X obj 79 72 * 12;
#X msg 79 37 4;
#X obj 13 13 loadbang;
#X msg 13 35 80;
#X obj 13 77 vsl 30 60 0 100 0 0 vol empty vol 14 -9 0 10 -4034 -1
-1 4720 1;
#X obj 156 11 r vol;
#X floatatom 156 33 5 0 0 0 - - -;
#X obj 283 10 key;
#X floatatom 283 33 5 0 0 0 - - -;
#X floatatom 203 33 5 0 0 0 - - -;
#X obj 203 11 r oct;
#N canvas 49 23 559 544 gui 0;
#X obj 31 349 tgl 30 0 empty q empty 17 7 0 10 -1 -262144 -262144 0
1;
#X obj 19 314 tgl 30 0 empty one empty 13 13 0 10 -262144 -1 -1 0 1
;
#X obj 38 384 tgl 30 0 empty a empty 17 7 0 10 -262144 -1 -1 0 1;
#X obj 44 418 tgl 30 0 empty z empty 17 7 0 10 -1 -262144 -262144 0
1;
#X obj 54 314 tgl 30 0 empty two empty 17 7 0 10 -262144 -1 -1 0 1
;
#X obj 66 349 tgl 30 0 empty w empty 17 7 0 10 -262144 -1 -1 0 1;
#X obj 73 384 tgl 30 0 empty s empty 17 7 0 10 -1 -262144 -262144 0
1;
#X obj 80 418 tgl 30 0 empty x empty 17 7 0 10 -262144 -1 -1 0 1;
#X obj 90 314 tgl 30 0 empty three empty 17 7 0 10 -1 -262144 -262144
0 1;
#X obj 101 349 tgl 30 0 empty e empty 17 7 0 10 -262144 -1 -1 0 1;
#X obj 109 384 tgl 30 0 empty d empty 17 7 0 10 -1 -262144 -262144
0 1;
#X obj 115 418 tgl 30 0 empty c empty 17 7 0 10 -262144 -1 -1 0 1;
#X obj 146 349 tgl 30 0 empty r empty 17 7 0 10 -1 -262144 -262144
0 1;
#X obj 134 314 tgl 30 0 empty four empty 13 13 0 10 -262144 -1 -1 0
1;
#X obj 153 384 tgl 30 0 empty f empty 17 7 0 10 -262144 -1 -1 0 1;
#X obj 159 418 tgl 30 0 empty v empty 17 7 0 10 -1 -262144 -262144
0 1;
#X obj 169 314 tgl 30 0 empty five empty 17 7 0 10 -262144 -1 -1 0
1;
#X obj 181 349 tgl 30 0 empty t empty 17 7 0 10 -262144 -1 -1 0 1;
#X obj 188 384 tgl 30 0 empty g empty 17 7 0 10 -1 -262144 -262144
0 1;
#X obj 195 418 tgl 30 0 empty b empty 17 7 0 10 -262144 -1 -1 0 1;
#X obj 205 314 tgl 30 0 empty six empty 17 7 0 10 -1 -262144 -262144
0 1;
#X obj 216 349 tgl 30 0 empty y empty 17 7 0 10 -262144 -1 -1 0 1;
#X obj 224 384 tgl 30 0 empty h empty 17 7 0 10 -1 -262144 -262144
0 1;
#X obj 230 418 tgl 30 0 empty n empty 17 7 0 10 -262144 -1 -1 0 1;
#X obj 262 349 tgl 30 0 empty u empty 17 7 0 10 -1 -262144 -262144
0 1;
#X obj 250 314 tgl 30 0 empty seven empty 13 13 0 10 -262144 -1 -1
0 1;
#X obj 269 384 tgl 30 0 empty j empty 17 7 0 10 -262144 -1 -1 0 1;
#X obj 275 418 tgl 30 0 empty m empty 17 7 0 10 -1 -262144 -262144
0 1;
#X obj 285 314 tgl 30 0 empty eight empty 17 7 0 10 -262144 -1 -1 0
1;
#X obj 297 349 tgl 30 0 empty i empty 17 7 0 10 -262144 -1 -1 0 1;
#X obj 304 384 tgl 30 0 empty k empty 17 7 0 10 -1 -262144 -262144
0 1;
#X obj 311 418 tgl 30 0 empty comma empty 17 7 0 10 -262144 -1 -1 0
1;
#X obj 321 314 tgl 30 0 empty nine empty 17 7 0 10 -1 -262144 -262144
0 1;
#X obj 332 349 tgl 30 0 empty o empty 17 7 0 10 -262144 -1 -1 0 1;
#X obj 340 384 tgl 30 0 empty l empty 17 7 0 10 -1 -262144 -262144
0 1;
#X obj 346 418 tgl 30 0 empty period empty 17 7 0 10 -262144 -1 -1
0 1;
#X obj 380 349 tgl 30 0 empty p empty 17 7 0 10 -1 -262144 -262144
0 1;
#X obj 368 314 tgl 30 0 empty zero empty 13 13 0 10 -262144 -1 -1 0
1;
#X obj 387 384 tgl 30 0 empty semi empty 17 7 0 10 -262144 -1 -1 0
1;
#X obj 393 418 tgl 30 0 empty fslash empty 17 7 0 10 -1 -262144 -262144
0 1;
#X obj 403 314 tgl 30 0 empty dash empty 17 7 0 10 -262144 -1 -1 0
1;
#X obj 415 349 tgl 30 0 empty bracka empty 17 7 0 10 -262144 -1 -1
0 1;
#X obj 422 384 tgl 30 0 empty quote empty 17 7 0 10 -1 -262144 -262144
0 1;
#X obj 439 314 tgl 30 0 empty equal empty 17 7 0 10 -1 -262144 -262144
0 1;
#X obj 450 349 tgl 30 0 empty brackb empty 17 7 0 10 -262144 -1 -1
0 1;
#X obj 458 384 tgl 30 0 empty enter empty 17 7 0 10 -1 -262144 -262144
0 1;
#X coords 0 -1 1 1 500 160 2 5 300;
#X restore 10 412 pd gui;
#N canvas 95 23 687 629 innards 0;
#N canvas 354 134 782 399 onegui 0;
#X obj 35 39 key;
#X msg 35 119 1;
#X msg 55 144 1;
#X msg 76 120 1;
#X msg 99 144 1;
#X msg 117 122 1;
#X msg 139 144 1;
#X msg 159 122 1;
#X msg 181 144 1;
#X msg 201 121 1;
#X msg 220 144 1;
#X msg 242 119 1;
#X msg 262 141 1;
#X msg 358 124 0;
#X msg 399 125 0;
#X msg 378 149 0;
#X msg 422 149 0;
#X msg 440 123 0;
#X msg 462 149 0;
#X msg 482 127 0;
#X msg 504 149 0;
#X msg 524 126 0;
#X msg 543 149 0;
#X msg 565 123 0;
#X msg 585 146 0;
#X obj 17 259 tgl 15 0 empty empty empty 17 7 0 10 -262144 -1 -1 0
1;
#X obj 37 259 tgl 15 0 empty empty empty 17 7 0 10 -262144 -1 -1 0
1;
#X obj 59 259 tgl 15 0 empty empty empty 17 7 0 10 -262144 -1 -1 0
1;
#X obj 82 259 tgl 15 0 empty empty empty 17 7 0 10 -262144 -1 -1 0
1;
#X obj 103 259 tgl 15 0 empty empty empty 17 7 0 10 -262144 -1 -1 0
1;
#X obj 125 259 tgl 15 0 empty empty empty 17 7 0 10 -262144 -1 -1 0
1;
#X obj 146 259 tgl 15 0 empty empty empty 17 7 0 10 -262144 -1 -1 0
1;
#X obj 168 259 tgl 15 0 empty empty empty 17 7 0 10 -262144 -1 -1 0
1;
#X obj 189 259 tgl 15 0 empty empty empty 17 7 0 10 -262144 -1 -1 0
1;
#X obj 210 259 tgl 15 0 empty empty empty 17 7 0 10 -262144 -1 -1 0
1;
#X obj 230 259 tgl 15 0 empty empty empty 17 7 0 10 -262144 -1 -1 0
1;
#X obj 254 259 tgl 15 0 empty empty empty 17 7 0 10 -262144 -1 -1 0
1;
#X obj 358 44 keyup;
#X obj 17 339 outlet;
#X obj 38 364 outlet;
#X obj 65 338 outlet;
#X obj 96 367 outlet;
#X obj 129 343 outlet;
#X obj 150 368 outlet;
#X obj 177 342 outlet;
#X obj 208 371 outlet;
#X obj 235 344 outlet;
#X obj 260 371 outlet;
#X obj 283 343 outlet;
#X obj 35 92 select 49 50 51 52 53 54 55 56 57 48 45 61 8;
#X obj 358 97 select 49 50 51 52 53 54 55 56 57 48 45 61 8;
#X text 252 64 1 to del;
#X obj 318 374 outlet;
#X msg 289 121 1;
#X msg 605 123 0;
#X obj 277 259 tgl 15 0 empty empty empty 17 7 0 10 -262144 -1 -1 0
1;
#X obj 350 350 outlet;
#X obj 405 331 s one;
#X obj 424 353 s two;
#X obj 451 332 s three;
#X obj 489 355 s four;
#X obj 512 335 s five;
#X obj 546 355 s six;
#X obj 561 335 s seven;
#X obj 597 355 s eight;
#X obj 619 335 s nine;
#X obj 652 356 s zero;
#X obj 673 334 s dash;
#X obj 708 358 s equal;
#X obj 739 335 s del;
#X connect 0 0 49 0;
#X connect 1 0 25 0;
#X connect 2 0 26 0;
#X connect 3 0 27 0;
#X connect 4 0 28 0;
#X connect 5 0 29 0;
#X connect 6 0 30 0;
#X connect 7 0 31 0;
#X connect 8 0 32 0;
#X connect 9 0 33 0;
#X connect 10 0 34 0;
#X connect 11 0 35 0;
#X connect 12 0 36 0;
#X connect 13 0 25 0;
#X connect 14 0 27 0;
#X connect 15 0 26 0;
#X connect 16 0 28 0;
#X connect 17 0 29 0;
#X connect 18 0 30 0;
#X connect 19 0 31 0;
#X connect 20 0 32 0;
#X connect 21 0 33 0;
#X connect 22 0 34 0;
#X connect 23 0 35 0;
#X connect 24 0 36 0;
#X connect 25 0 38 0;
#X connect 25 0 57 0;
#X connect 26 0 39 0;
#X connect 26 0 58 0;
#X connect 27 0 40 0;
#X connect 27 0 59 0;
#X connect 28 0 41 0;
#X connect 28 0 60 0;
#X connect 29 0 42 0;
#X connect 29 0 61 0;
#X connect 30 0 43 0;
#X connect 30 0 62 0;
#X connect 31 0 44 0;
#X connect 31 0 63 0;
#X connect 32 0 45 0;
#X connect 32 0 64 0;
#X connect 33 0 46 0;
#X connect 33 0 65 0;
#X connect 34 0 47 0;
#X connect 34 0 66 0;
#X connect 35 0 48 0;
#X connect 35 0 67 0;
#X connect 36 0 52 0;
#X connect 36 0 68 0;
#X connect 37 0 50 0;
#X connect 49 0 1 0;
#X connect 49 1 2 0;
#X connect 49 2 3 0;
#X connect 49 3 4 0;
#X connect 49 4 5 0;
#X connect 49 5 6 0;
#X connect 49 6 7 0;
#X connect 49 7 8 0;
#X connect 49 8 9 0;
#X connect 49 9 10 0;
#X connect 49 10 11 0;
#X connect 49 11 12 0;
#X connect 49 12 53 0;
#X connect 50 0 13 0;
#X connect 50 1 15 0;
#X connect 50 2 14 0;
#X connect 50 3 16 0;
#X connect 50 4 17 0;
#X connect 50 5 18 0;
#X connect 50 6 19 0;
#X connect 50 7 20 0;
#X connect 50 8 21 0;
#X connect 50 9 22 0;
#X connect 50 10 23 0;
#X connect 50 11 24 0;
#X connect 50 12 54 0;
#X connect 53 0 55 0;
#X connect 54 0 55 0;
#X connect 55 0 56 0;
#X connect 55 0 69 0;
#X coords 0 -1 1 1 280 40 1 15 240;
#X restore 32 -8 pd onegui;
#N canvas 459 290 808 401 q 0;
#X obj 30 27 key;
#X msg 30 107 1;
#X msg 50 132 1;
#X msg 71 108 1;
#X msg 94 132 1;
#X msg 112 110 1;
#X msg 134 132 1;
#X msg 154 110 1;
#X msg 176 132 1;
#X msg 196 109 1;
#X msg 215 132 1;
#X msg 237 107 1;
#X msg 257 129 1;
#X msg 374 110 0;
#X msg 415 111 0;
#X msg 394 135 0;
#X msg 438 135 0;
#X msg 456 109 0;
#X msg 478 135 0;
#X msg 498 113 0;
#X msg 520 135 0;
#X msg 540 112 0;
#X msg 559 135 0;
#X msg 581 109 0;
#X msg 601 132 0;
#X obj 17 259 tgl 15 0 empty empty empty 17 7 0 10 -262144 -1 -1 0
1;
#X obj 46 259 tgl 15 0 empty empty empty 17 7 0 10 -262144 -1 -1 0
1;
#X obj 73 260 tgl 15 0 empty empty empty 17 7 0 10 -262144 -1 -1 0
1;
#X obj 95 259 tgl 15 0 empty empty empty 17 7 0 10 -262144 -1 -1 0
1;
#X obj 119 259 tgl 15 0 empty empty empty 17 7 0 10 -262144 -1 -1 0
1;
#X obj 142 260 tgl 15 0 empty empty empty 17 7 0 10 -262144 -1 -1 0
1;
#X obj 165 259 tgl 15 0 empty empty empty 17 7 0 10 -262144 -1 -1 0
1;
#X obj 189 259 tgl 15 0 empty empty empty 17 7 0 10 -262144 -1 -1 0
1;
#X obj 212 259 tgl 15 0 empty empty empty 17 7 0 10 -262144 -1 -1 0
1;
#X obj 236 259 tgl 15 0 empty empty empty 17 7 0 10 -262144 -1 -1 0
1;
#X obj 259 259 tgl 15 0 empty empty empty 17 7 0 10 -262144 -1 -1 0
1;
#X obj 279 259 tgl 15 0 empty empty empty 17 7 0 10 -262144 -1 -1 0
1;
#X obj 374 30 keyup;
#X text 296 52 q to ];
#X obj 30 80 select 113 119 101 114 116 121 117 105 111 112 91 93;
#X obj 374 83 select 113 119 101 114 116 121 117 105 111 112 91 93
;
#X obj 27 310 outlet;
#X obj 48 335 outlet;
#X obj 75 309 outlet;
#X obj 106 338 outlet;
#X obj 139 314 outlet;
#X obj 160 339 outlet;
#X obj 187 313 outlet;
#X obj 218 342 outlet;
#X obj 245 315 outlet;
#X obj 270 342 outlet;
#X obj 293 314 outlet;
#X obj 328 345 outlet;
#X obj 441 304 s q;
#X obj 460 332 s w;
#X obj 477 304 s e;
#X obj 496 332 s r;
#X obj 509 305 s t;
#X obj 532 333 s y;
#X obj 537 306 s u;
#X obj 564 333 s i;
#X obj 577 306 s o;
#X obj 602 336 s p;
#X obj 613 307 s bracka;
#X obj 658 338 s brackb;
#X connect 0 0 39 0;
#X connect 1 0 25 0;
#X connect 2 0 26 0;
#X connect 3 0 27 0;
#X connect 4 0 28 0;
#X connect 5 0 29 0;
#X connect 6 0 30 0;
#X connect 7 0 31 0;
#X connect 8 0 32 0;
#X connect 9 0 33 0;
#X connect 10 0 34 0;
#X connect 11 0 35 0;
#X connect 12 0 36 0;
#X connect 13 0 25 0;
#X connect 14 0 27 0;
#X connect 15 0 26 0;
#X connect 16 0 28 0;
#X connect 17 0 29 0;
#X connect 18 0 30 0;
#X connect 19 0 31 0;
#X connect 20 0 32 0;
#X connect 21 0 33 0;
#X connect 22 0 34 0;
#X connect 23 0 35 0;
#X connect 24 0 36 0;
#X connect 25 0 41 0;
#X connect 25 0 53 0;
#X connect 26 0 42 0;
#X connect 26 0 54 0;
#X connect 27 0 43 0;
#X connect 27 0 55 0;
#X connect 28 0 44 0;
#X connect 28 0 56 0;
#X connect 29 0 45 0;
#X connect 29 0 57 0;
#X connect 30 0 46 0;
#X connect 30 0 58 0;
#X connect 31 0 47 0;
#X connect 31 0 59 0;
#X connect 32 0 48 0;
#X connect 32 0 60 0;
#X connect 33 0 49 0;
#X connect 33 0 61 0;
#X connect 34 0 50 0;
#X connect 34 0 62 0;
#X connect 35 0 51 0;
#X connect 35 0 63 0;
#X connect 36 0 52 0;
#X connect 36 0 64 0;
#X connect 37 0 40 0;
#X connect 39 0 1 0;
#X connect 39 1 2 0;
#X connect 39 2 3 0;
#X connect 39 3 4 0;
#X connect 39 4 5 0;
#X connect 39 5 6 0;
#X connect 39 6 7 0;
#X connect 39 7 8 0;
#X connect 39 8 9 0;
#X connect 39 9 10 0;
#X connect 39 10 11 0;
#X connect 39 11 12 0;
#X connect 40 0 13 0;
#X connect 40 1 15 0;
#X connect 40 2 14 0;
#X connect 40 3 16 0;
#X connect 40 4 17 0;
#X connect 40 5 18 0;
#X connect 40 6 19 0;
#X connect 40 7 20 0;
#X connect 40 8 21 0;
#X connect 40 9 22 0;
#X connect 40 10 23 0;
#X connect 40 11 24 0;
#X coords 0 -1 1 1 280 40 1 15 240;
#X restore 52 37 pd q;
#N canvas 404 280 749 409 a 0;
#X obj 37 320 outlet;
#X obj 58 345 outlet;
#X obj 85 319 outlet;
#X obj 116 348 outlet;
#X obj 149 324 outlet;
#X obj 170 349 outlet;
#X obj 197 323 outlet;
#X obj 228 352 outlet;
#X obj 255 325 outlet;
#X obj 280 352 outlet;
#X obj 303 324 outlet;
#X obj 338 355 outlet;
#X obj 40 38 key;
#X msg 40 118 1;
#X msg 66 144 1;
#X msg 90 119 1;
#X msg 116 145 1;
#X msg 141 123 1;
#X msg 166 145 1;
#X msg 192 124 1;
#X msg 217 144 1;
#X msg 242 122 1;
#X msg 268 143 1;
#X msg 293 119 1;
#X msg 363 123 0;
#X msg 404 124 0;
#X msg 383 148 0;
#X msg 427 148 0;
#X msg 445 122 0;
#X msg 467 148 0;
#X msg 487 126 0;
#X msg 509 148 0;
#X msg 529 125 0;
#X msg 548 148 0;
#X msg 570 122 0;
#X obj 18 260 tgl 15 0 empty empty empty 17 7 0 10 -262144 -1 -1 0
1;
#X obj 42 260 tgl 15 0 empty empty empty 17 7 0 10 -262144 -1 -1 0
1;
#X obj 65 260 tgl 15 0 empty empty empty 17 7 0 10 -262144 -1 -1 0
1;
#X obj 93 260 tgl 15 0 empty empty empty 17 7 0 10 -262144 -1 -1 0
1;
#X obj 117 260 tgl 15 0 empty empty empty 17 7 0 10 -262144 -1 -1 0
1;
#X obj 142 260 tgl 15 0 empty empty empty 17 7 0 10 -262144 -1 -1 0
1;
#X obj 168 260 tgl 15 0 empty empty empty 17 7 0 10 -262144 -1 -1 0
1;
#X obj 192 260 tgl 15 0 empty empty empty 17 7 0 10 -262144 -1 -1 0
1;
#X obj 214 260 tgl 15 0 empty empty empty 17 7 0 10 -262144 -1 -1 0
1;
#X obj 236 260 tgl 15 0 empty empty empty 17 7 0 10 -262144 -1 -1 0
1;
#X obj 256 260 tgl 15 0 empty empty empty 17 7 0 10 -262144 -1 -1 0
1;
#X obj 363 43 keyup;
#X text 280 64 a to ';
#X obj 40 91 select 97 115 100 102 103 104 106 107 108 59 39 10;
#X obj 363 96 select 97 115 100 102 103 104 106 107 108 59 39 10;
#X msg 327 121 1;
#X msg 604 124 0;
#X obj 279 260 tgl 15 0 empty empty empty 17 7 0 10 -262144 -1 -1 0
1;
#X obj 451 314 s a;
#X obj 470 342 s s;
#X obj 487 314 s d;
#X obj 506 342 s f;
#X obj 519 315 s g;
#X obj 542 343 s h;
#X obj 547 316 s j;
#X obj 574 343 s k;
#X obj 587 316 s l;
#X obj 668 348 s enter;
#X obj 623 317 s quote;
#X obj 612 346 s semi;
#X connect 12 0 48 0;
#X connect 13 0 35 0;
#X connect 14 0 36 0;
#X connect 15 0 37 0;
#X connect 16 0 38 0;
#X connect 17 0 39 0;
#X connect 18 0 40 0;
#X connect 19 0 41 0;
#X connect 20 0 42 0;
#X connect 21 0 43 0;
#X connect 22 0 44 0;
#X connect 23 0 45 0;
#X connect 24 0 35 0;
#X connect 25 0 37 0;
#X connect 26 0 36 0;
#X connect 27 0 38 0;
#X connect 28 0 39 0;
#X connect 29 0 40 0;
#X connect 30 0 41 0;
#X connect 31 0 42 0;
#X connect 32 0 43 0;
#X connect 33 0 44 0;
#X connect 34 0 45 0;
#X connect 35 0 0 0;
#X connect 35 0 53 0;
#X connect 36 0 1 0;
#X connect 36 0 54 0;
#X connect 37 0 2 0;
#X connect 37 0 55 0;
#X connect 38 0 3 0;
#X connect 38 0 56 0;
#X connect 39 0 4 0;
#X connect 39 0 57 0;
#X connect 40 0 5 0;
#X connect 40 0 58 0;
#X connect 41 0 6 0;
#X connect 41 0 59 0;
#X connect 42 0 7 0;
#X connect 42 0 60 0;
#X connect 43 0 8 0;
#X connect 43 0 61 0;
#X connect 44 0 9 0;
#X connect 44 0 64 0;
#X connect 45 0 10 0;
#X connect 45 0 63 0;
#X connect 46 0 49 0;
#X connect 48 0 13 0;
#X connect 48 1 14 0;
#X connect 48 2 15 0;
#X connect 48 3 16 0;
#X connect 48 4 17 0;
#X connect 48 5 18 0;
#X connect 48 6 19 0;
#X connect 48 7 20 0;
#X connect 48 8 21 0;
#X connect 48 9 22 0;
#X connect 48 10 23 0;
#X connect 48 11 50 0;
#X connect 49 0 24 0;
#X connect 49 1 26 0;
#X connect 49 2 25 0;
#X connect 49 3 27 0;
#X connect 49 4 28 0;
#X connect 49 5 29 0;
#X connect 49 6 30 0;
#X connect 49 7 31 0;
#X connect 49 8 32 0;
#X connect 49 9 33 0;
#X connect 49 10 34 0;
#X connect 49 11 51 0;
#X connect 50 0 52 0;
#X connect 51 0 52 0;
#X connect 52 0 11 0;
#X connect 52 0 62 0;
#X coords 0 -1 1 1 280 40 1 15 240;
#X restore 68 83 pd a;
#X obj 85 548 dac~;
#X obj 85 506 *~ 1;
#N canvas 60 282 1202 228 octaveone_________ 0;
#X obj 18 41 inlet;
#X obj 81 41 r vol;
#X obj 17 129 outlet~;
#X obj 137 38 inlet;
#X obj 206 43 r vol;
#X obj 136 131 outlet~;
#X obj 251 40 inlet;
#X obj 320 45 r vol;
#X obj 250 133 outlet~;
#X obj 367 44 inlet;
#X obj 436 49 r vol;
#X obj 366 137 outlet~;
#X obj 487 41 inlet;
#X obj 556 46 r vol;
#X obj 486 134 outlet~;
#X obj 606 43 inlet;
#X obj 675 48 r vol;
#X obj 605 136 outlet~;
#X obj 720 45 inlet;
#X obj 789 50 r vol;
#X obj 719 138 outlet~;
#X obj 836 49 inlet;
#X obj 905 54 r vol;
#X obj 835 142 outlet~;
#X obj 956 52 inlet;
#X obj 1025 57 r vol;
#X obj 955 145 outlet~;
#X obj 1075 54 inlet;
#X obj 1144 59 r vol;
#X obj 1074 147 outlet~;
#X obj 1189 56 inlet;
#X obj 1258 61 r vol;
#X obj 1188 149 outlet~;
#X obj 1305 60 inlet;
#X obj 1374 65 r vol;
#X obj 1304 153 outlet~;
#X obj 18 66 cycleunitB 0;
#X obj 137 68 cycleunitB 1;
#X obj 251 70 cycleunitB 2;
#X obj 367 74 cycleunitB 3;
#X obj 487 71 cycleunitB 4;
#X obj 606 73 cycleunitB 5;
#X obj 720 75 cycleunitB 6;
#X obj 836 79 cycleunitB 7;
#X obj 957 81 cycleunitB 8;
#X obj 1075 84 cycleunitB 9;
#X obj 1189 86 cycleunitB 10;
#X obj 1305 90 cycleunitB 11;
#X connect 0 0 36 0;
#X connect 1 0 36 1;
#X connect 3 0 37 0;
#X connect 4 0 37 1;
#X connect 6 0 38 0;
#X connect 7 0 38 1;
#X connect 9 0 39 0;
#X connect 10 0 39 1;
#X connect 12 0 40 0;
#X connect 13 0 40 1;
#X connect 15 0 41 0;
#X connect 16 0 41 1;
#X connect 18 0 42 0;
#X connect 19 0 42 1;
#X connect 21 0 43 0;
#X connect 22 0 43 1;
#X connect 24 0 44 0;
#X connect 25 0 44 1;
#X connect 27 0 45 0;
#X connect 28 0 45 1;
#X connect 30 0 46 0;
#X connect 31 0 46 1;
#X connect 33 0 47 0;
#X connect 34 0 47 1;
#X connect 36 0 2 0;
#X connect 37 0 5 0;
#X connect 38 0 8 0;
#X connect 39 0 11 0;
#X connect 40 0 14 0;
#X connect 41 0 17 0;
#X connect 42 0 20 0;
#X connect 43 0 23 0;
#X connect 44 0 26 0;
#X connect 45 0 29 0;
#X connect 46 0 32 0;
#X connect 47 0 35 0;
#X restore 87 281 pd octaveone_________;
#N canvas 53 123 1202 228 octavetwo_________ 0;
#X obj 18 36 inlet;
#X obj 87 41 r vol;
#X obj 17 129 outlet~;
#X obj 137 38 inlet;
#X obj 206 43 r vol;
#X obj 136 131 outlet~;
#X obj 251 40 inlet;
#X obj 320 45 r vol;
#X obj 250 133 outlet~;
#X obj 367 44 inlet;
#X obj 436 49 r vol;
#X obj 366 137 outlet~;
#X obj 487 41 inlet;
#X obj 556 46 r vol;
#X obj 486 134 outlet~;
#X obj 606 43 inlet;
#X obj 675 48 r vol;
#X obj 605 136 outlet~;
#X obj 720 45 inlet;
#X obj 789 50 r vol;
#X obj 719 138 outlet~;
#X obj 836 49 inlet;
#X obj 905 54 r vol;
#X obj 835 142 outlet~;
#X obj 956 52 inlet;
#X obj 1025 57 r vol;
#X obj 955 145 outlet~;
#X obj 1075 54 inlet;
#X obj 1144 59 r vol;
#X obj 1074 147 outlet~;
#X obj 1189 56 inlet;
#X obj 1258 61 r vol;
#X obj 1188 149 outlet~;
#X obj 1305 60 inlet;
#X obj 1374 65 r vol;
#X obj 1304 153 outlet~;
#X obj 18 66 cycleunitB 12;
#X obj 137 68 cycleunitB 13;
#X obj 251 70 cycleunitB 14;
#X obj 367 74 cycleunitB 15;
#X obj 487 71 cycleunitB 16;
#X obj 606 73 cycleunitB 17;
#X obj 720 75 cycleunitB 18;
#X obj 836 79 cycleunitB 19;
#X obj 957 81 cycleunitB 20;
#X obj 1075 84 cycleunitB 21;
#X obj 1189 86 cycleunitB 22;
#X obj 1305 90 cycleunitB 23;
#X connect 0 0 36 0;
#X connect 1 0 36 1;
#X connect 3 0 37 0;
#X connect 4 0 37 1;
#X connect 6 0 38 0;
#X connect 7 0 38 1;
#X connect 9 0 39 0;
#X connect 10 0 39 1;
#X connect 12 0 40 0;
#X connect 13 0 40 1;
#X connect 15 0 41 0;
#X connect 16 0 41 1;
#X connect 18 0 42 0;
#X connect 19 0 42 1;
#X connect 21 0 43 0;
#X connect 22 0 43 1;
#X connect 24 0 44 0;
#X connect 25 0 44 1;
#X connect 27 0 45 0;
#X connect 28 0 45 1;
#X connect 30 0 46 0;
#X connect 31 0 46 1;
#X connect 33 0 47 0;
#X connect 34 0 47 1;
#X connect 36 0 2 0;
#X connect 37 0 5 0;
#X connect 38 0 8 0;
#X connect 39 0 11 0;
#X connect 40 0 14 0;
#X connect 41 0 17 0;
#X connect 42 0 20 0;
#X connect 43 0 23 0;
#X connect 44 0 26 0;
#X connect 45 0 29 0;
#X connect 46 0 32 0;
#X connect 47 0 35 0;
#X restore 224 282 pd octavetwo_________;
#N canvas 53 123 1202 228 octavethree_________ 0;
#X obj 18 36 inlet;
#X obj 87 41 r vol;
#X obj 17 129 outlet~;
#X obj 137 38 inlet;
#X obj 206 43 r vol;
#X obj 136 131 outlet~;
#X obj 251 40 inlet;
#X obj 320 45 r vol;
#X obj 250 133 outlet~;
#X obj 367 44 inlet;
#X obj 436 49 r vol;
#X obj 366 137 outlet~;
#X obj 487 41 inlet;
#X obj 556 46 r vol;
#X obj 486 134 outlet~;
#X obj 606 43 inlet;
#X obj 675 48 r vol;
#X obj 605 136 outlet~;
#X obj 720 45 inlet;
#X obj 789 50 r vol;
#X obj 719 138 outlet~;
#X obj 836 49 inlet;
#X obj 905 54 r vol;
#X obj 835 142 outlet~;
#X obj 956 52 inlet;
#X obj 1025 57 r vol;
#X obj 955 145 outlet~;
#X obj 1075 54 inlet;
#X obj 1144 59 r vol;
#X obj 1074 147 outlet~;
#X obj 1189 56 inlet;
#X obj 1258 61 r vol;
#X obj 1188 149 outlet~;
#X obj 1305 60 inlet;
#X obj 1374 65 r vol;
#X obj 1304 153 outlet~;
#X obj 18 66 cycleunitB 24;
#X obj 137 68 cycleunitB 25;
#X obj 251 70 cycleunitB 26;
#X obj 367 74 cycleunitB 27;
#X obj 487 71 cycleunitB 28;
#X obj 606 73 cycleunitB 29;
#X obj 720 75 cycleunitB 30;
#X obj 836 79 cycleunitB 31;
#X obj 957 81 cycleunitB 32;
#X obj 1075 84 cycleunitB 33;
#X obj 1189 86 cycleunitB 34;
#X obj 1305 90 cycleunitB 35;
#X connect 0 0 36 0;
#X connect 1 0 36 1;
#X connect 3 0 37 0;
#X connect 4 0 37 1;
#X connect 6 0 38 0;
#X connect 7 0 38 1;
#X connect 9 0 39 0;
#X connect 10 0 39 1;
#X connect 12 0 40 0;
#X connect 13 0 40 1;
#X connect 15 0 41 0;
#X connect 16 0 41 1;
#X connect 18 0 42 0;
#X connect 19 0 42 1;
#X connect 21 0 43 0;
#X connect 22 0 43 1;
#X connect 24 0 44 0;
#X connect 25 0 44 1;
#X connect 27 0 45 0;
#X connect 28 0 45 1;
#X connect 30 0 46 0;
#X connect 31 0 46 1;
#X connect 33 0 47 0;
#X connect 34 0 47 1;
#X connect 36 0 2 0;
#X connect 37 0 5 0;
#X connect 38 0 8 0;
#X connect 39 0 11 0;
#X connect 40 0 14 0;
#X connect 41 0 17 0;
#X connect 42 0 20 0;
#X connect 43 0 23 0;
#X connect 44 0 26 0;
#X connect 45 0 29 0;
#X connect 46 0 32 0;
#X connect 47 0 35 0;
#X restore 359 283 pd octavethree_________;
#N canvas 70 128 746 564 z 0;
#X obj 46 314 outlet;
#X obj 67 339 outlet;
#X obj 94 313 outlet;
#X obj 125 342 outlet;
#X obj 158 318 outlet;
#X obj 179 343 outlet;
#X obj 206 317 outlet;
#X obj 237 346 outlet;
#X obj 264 319 outlet;
#X obj 289 346 outlet;
#X obj 48 49 key;
#X msg 49 112 1;
#X msg 75 138 1;
#X msg 99 113 1;
#X msg 125 139 1;
#X msg 150 117 1;
#X msg 175 139 1;
#X msg 201 118 1;
#X msg 226 138 1;
#X msg 251 116 1;
#X msg 277 137 1;
#X msg 372 117 0;
#X msg 413 118 0;
#X msg 392 142 0;
#X msg 436 142 0;
#X msg 454 116 0;
#X msg 476 142 0;
#X msg 496 120 0;
#X msg 518 142 0;
#X msg 538 119 0;
#X msg 557 142 0;
#X obj 27 254 tgl 15 0 empty empty empty 17 7 0 10 -262144 -1 -1 0
1;
#X obj 51 254 tgl 15 0 empty empty empty 17 7 0 10 -262144 -1 -1 0
1;
#X obj 74 254 tgl 15 0 empty empty empty 17 7 0 10 -262144 -1 -1 0
1;
#X obj 102 254 tgl 15 0 empty empty empty 17 7 0 10 -262144 -1 -1 0
1;
#X obj 126 254 tgl 15 0 empty empty empty 17 7 0 10 -262144 -1 -1 0
1;
#X obj 151 254 tgl 15 0 empty empty empty 17 7 0 10 -262144 -1 -1 0
1;
#X obj 177 254 tgl 15 0 empty empty empty 17 7 0 10 -262144 -1 -1 0
1;
#X obj 201 254 tgl 15 0 empty empty empty 17 7 0 10 -262144 -1 -1 0
1;
#X obj 223 254 tgl 15 0 empty empty empty 17 7 0 10 -262144 -1 -1 0
1;
#X obj 245 254 tgl 15 0 empty empty empty 17 7 0 10 -262144 -1 -1 0
1;
#X obj 372 64 keyup;
#X obj 372 90 select 122 120 99 118 98 110 109 44 46 47;
#X obj 460 308 s z;
#X obj 479 336 s x;
#X obj 496 308 s c;
#X obj 515 336 s v;
#X obj 528 309 s b;
#X obj 551 337 s n;
#X obj 556 310 s m;
#X obj 583 337 s comma;
#X obj 596 310 s period;
#X obj 641 337 s fslash;
#X obj 49 85 select 122 120 99 118 98 110 109 44 46 47;
#X connect 10 0 53 0;
#X connect 11 0 31 0;
#X connect 12 0 32 0;
#X connect 13 0 33 0;
#X connect 14 0 34 0;
#X connect 15 0 35 0;
#X connect 16 0 36 0;
#X connect 17 0 37 0;
#X connect 18 0 38 0;
#X connect 19 0 39 0;
#X connect 20 0 40 0;
#X connect 21 0 31 0;
#X connect 22 0 33 0;
#X connect 23 0 32 0;
#X connect 24 0 34 0;
#X connect 25 0 35 0;
#X connect 26 0 36 0;
#X connect 27 0 37 0;
#X connect 28 0 38 0;
#X connect 29 0 39 0;
#X connect 30 0 40 0;
#X connect 31 0 0 0;
#X connect 31 0 43 0;
#X connect 32 0 1 0;
#X connect 32 0 44 0;
#X connect 33 0 2 0;
#X connect 33 0 45 0;
#X connect 34 0 3 0;
#X connect 34 0 46 0;
#X connect 35 0 4 0;
#X connect 35 0 47 0;
#X connect 36 0 5 0;
#X connect 36 0 48 0;
#X connect 37 0 6 0;
#X connect 37 0 49 0;
#X connect 38 0 7 0;
#X connect 38 0 50 0;
#X connect 39 0 8 0;
#X connect 39 0 51 0;
#X connect 40 0 9 0;
#X connect 40 0 52 0;
#X connect 41 0 42 0;
#X connect 42 0 21 0;
#X connect 42 1 23 0;
#X connect 42 2 22 0;
#X connect 42 3 24 0;
#X connect 42 4 25 0;
#X connect 42 5 26 0;
#X connect 42 6 27 0;
#X connect 42 7 28 0;
#X connect 42 8 29 0;
#X connect 42 9 30 0;
#X connect 53 0 11 0;
#X connect 53 1 12 0;
#X connect 53 2 13 0;
#X connect 53 3 14 0;
#X connect 53 4 15 0;
#X connect 53 5 16 0;
#X connect 53 6 17 0;
#X connect 53 7 18 0;
#X connect 53 8 19 0;
#X connect 53 9 20 0;
#X coords 0 -1 1 1 280 40 1 15 240;
#X restore 88 131 pd z;
#N canvas 53 123 1202 228 octavefour_________ 0;
#X obj 18 36 inlet;
#X obj 87 41 r vol;
#X obj 17 129 outlet~;
#X obj 137 38 inlet;
#X obj 206 43 r vol;
#X obj 136 131 outlet~;
#X obj 251 40 inlet;
#X obj 320 45 r vol;
#X obj 250 133 outlet~;
#X obj 367 44 inlet;
#X obj 436 49 r vol;
#X obj 366 137 outlet~;
#X obj 487 41 inlet;
#X obj 556 46 r vol;
#X obj 486 134 outlet~;
#X obj 606 43 inlet;
#X obj 675 48 r vol;
#X obj 605 136 outlet~;
#X obj 720 45 inlet;
#X obj 789 50 r vol;
#X obj 719 138 outlet~;
#X obj 836 49 inlet;
#X obj 905 54 r vol;
#X obj 835 142 outlet~;
#X obj 956 52 inlet;
#X obj 1025 57 r vol;
#X obj 955 145 outlet~;
#X obj 1075 54 inlet;
#X obj 1144 59 r vol;
#X obj 1074 147 outlet~;
#X obj 1189 56 inlet;
#X obj 1258 61 r vol;
#X obj 1188 149 outlet~;
#X obj 1305 60 inlet;
#X obj 1374 65 r vol;
#X obj 1304 153 outlet~;
#X obj -98 33 inlet;
#X obj -29 38 r vol;
#X obj -99 126 outlet~;
#X obj 18 66 cycleunitB 37;
#X obj 137 68 cycleunitB 38;
#X obj 251 70 cycleunitB 39;
#X obj 367 74 cycleunitB 40;
#X obj 487 71 cycleunitB 41;
#X obj 606 73 cycleunitB 42;
#X obj 720 75 cycleunitB 43;
#X obj 836 79 cycleunitB 44;
#X obj 957 81 cycleunitB 45;
#X obj 1075 84 cycleunitB 46;
#X obj 1189 86 cycleunitB 47;
#X obj 1305 90 cycleunitB 48;
#X obj -98 63 cycleunitB 36;
#X connect 0 0 39 0;
#X connect 1 0 39 1;
#X connect 3 0 40 0;
#X connect 4 0 40 1;
#X connect 6 0 41 0;
#X connect 7 0 41 1;
#X connect 9 0 42 0;
#X connect 10 0 42 1;
#X connect 12 0 43 0;
#X connect 13 0 43 1;
#X connect 15 0 44 0;
#X connect 16 0 44 1;
#X connect 18 0 45 0;
#X connect 19 0 45 1;
#X connect 21 0 46 0;
#X connect 22 0 46 1;
#X connect 24 0 47 0;
#X connect 25 0 47 1;
#X connect 27 0 48 0;
#X connect 28 0 48 1;
#X connect 30 0 49 0;
#X connect 31 0 49 1;
#X connect 33 0 50 0;
#X connect 34 0 50 1;
#X connect 36 0 51 0;
#X connect 37 0 51 1;
#X connect 39 0 2 0;
#X connect 40 0 5 0;
#X connect 41 0 8 0;
#X connect 42 0 11 0;
#X connect 43 0 14 0;
#X connect 44 0 17 0;
#X connect 45 0 20 0;
#X connect 46 0 23 0;
#X connect 47 0 26 0;
#X connect 48 0 29 0;
#X connect 49 0 32 0;
#X connect 50 0 35 0;
#X connect 51 0 38 0;
#X restore 505 286 pd octavefour_________;
#X connect 0 0 5 0;
#X connect 0 1 5 4;
#X connect 0 2 5 8;
#X connect 0 3 6 0;
#X connect 0 4 6 4;
#X connect 0 5 6 8;
#X connect 0 6 7 0;
#X connect 0 7 7 4;
#X connect 0 8 7 8;
#X connect 0 9 9 0;
#X connect 0 10 9 4;
#X connect 1 0 5 1;
#X connect 1 1 5 5;
#X connect 1 2 5 9;
#X connect 1 3 6 1;
#X connect 1 4 6 5;
#X connect 1 5 6 9;
#X connect 1 6 7 1;
#X connect 1 7 7 5;
#X connect 1 8 7 9;
#X connect 1 9 9 1;
#X connect 1 10 9 5;
#X connect 2 0 5 2;
#X connect 2 1 5 6;
#X connect 2 2 5 10;
#X connect 2 3 6 2;
#X connect 2 4 6 6;
#X connect 2 5 6 10;
#X connect 2 6 7 2;
#X connect 2 7 7 6;
#X connect 2 8 7 10;
#X connect 2 9 9 2;
#X connect 2 10 9 6;
#X connect 4 0 3 0;
#X connect 5 0 4 0;
#X connect 5 1 4 0;
#X connect 5 2 4 0;
#X connect 5 3 4 0;
#X connect 5 4 4 0;
#X connect 5 5 4 0;
#X connect 5 6 4 0;
#X connect 5 7 4 0;
#X connect 5 8 4 0;
#X connect 5 9 4 0;
#X connect 5 10 4 0;
#X connect 5 11 4 0;
#X connect 6 0 4 0;
#X connect 6 1 4 0;
#X connect 6 2 4 0;
#X connect 6 3 4 0;
#X connect 6 4 4 0;
#X connect 6 5 4 0;
#X connect 6 6 4 0;
#X connect 6 7 4 0;
#X connect 6 8 4 0;
#X connect 6 9 4 0;
#X connect 6 10 4 0;
#X connect 6 11 4 0;
#X connect 7 0 4 0;
#X connect 7 1 4 0;
#X connect 7 2 4 0;
#X connect 7 3 4 0;
#X connect 7 4 4 0;
#X connect 7 5 4 0;
#X connect 7 6 4 0;
#X connect 7 7 4 0;
#X connect 7 8 4 0;
#X connect 7 9 4 0;
#X connect 7 10 4 0;
#X connect 7 11 4 0;
#X connect 8 0 5 3;
#X connect 8 1 5 7;
#X connect 8 2 5 11;
#X connect 8 3 6 3;
#X connect 8 4 6 7;
#X connect 8 5 6 11;
#X connect 8 6 7 3;
#X connect 8 7 7 7;
#X connect 8 8 7 11;
#X connect 8 9 9 3;
#X connect 9 0 4 0;
#X connect 9 1 4 0;
#X connect 9 2 4 0;
#X connect 9 3 4 0;
#X connect 9 4 4 0;
#X connect 9 5 4 0;
#X connect 9 6 4 0;
#X connect 9 7 4 0;
#X connect 9 8 4 0;
#X connect 9 9 4 0;
#X connect 9 10 4 0;
#X connect 9 11 4 0;
#X connect 9 12 4 0;
#X restore 17 183 pd innards;
#X floatatom 745 376 5 0 0 0 - - -;
#X obj 745 418 s pshift;
#X obj 439 333 dac~;
#X floatatom 477 217 5 0 0 0 - - -;
#X obj 438 217 tgl 15 0 empty empty empty 17 7 0 10 -262144 -1 -1 0
1;
#X obj 439 256 cycleunitC 48;
#X obj 796 269 vsl 15 128 -50 51 0 0 empty empty empty 0 -9 0 10 -262144
-1 -1 8456 1;
#X obj 795 231 line;
#X msg 795 197 0 100;
#X obj 669 28 cursor;
#X obj 669 96 route x y;
#X obj 671 4 tgl 15 0 empty empty empty 17 7 0 10 -262144 -1 -1 0 1
;
#X floatatom 669 125 5 0 0 0 - - -;
#X floatatom 709 125 5 0 0 0 - - -;
#X obj 669 68 route motion button;
#X obj 759 102 route 1;
#X obj 758 130 tgl 15 0 empty empty empty 17 7 0 10 -262144 -1 -1 0
1;
#X obj 710 169 / 799;
#X obj 709 196 - 0.5;
#X floatatom 709 257 10 0 0 0 - - -;
#X obj 792 154 metro 100;
#X obj 350 21 basicadc;
#X obj 708 224 * -40;
#X text 140 179 0 4 8 0 4 8 0 4 8 0 4 8 \; 1 5 9 1 5 9 1 5 9 1 5 9
\; 2 6 t 2 6 t 2 6 t 2 6 t \; 3 7 e 3 7 e 3 7 e 3 7 e \;;
#X connect 1 0 3 0;
#X connect 2 0 0 0;
#X connect 3 0 2 0;
#X connect 4 0 5 0;
#X connect 5 0 6 0;
#X connect 7 0 8 0;
#X connect 9 0 10 0;
#X connect 12 0 11 0;
#X connect 15 0 16 0;
#X connect 18 0 20 1;
#X connect 19 0 20 0;
#X connect 20 0 17 0;
#X connect 21 0 16 0;
#X connect 22 0 21 0;
#X connect 23 0 22 0;
#X connect 24 0 29 0;
#X connect 25 0 27 0;
#X connect 25 1 28 0;
#X connect 26 0 24 0;
#X connect 28 0 32 0;
#X connect 29 0 25 0;
#X connect 29 1 30 0;
#X connect 30 0 31 0;
#X connect 31 0 35 0;
#X connect 32 0 33 0;
#X connect 33 0 37 0;
#X connect 35 0 23 0;
#X connect 36 3 17 1;
#X connect 36 3 17 0;
#X connect 37 0 21 0;
#X connect 37 0 34 0;
