#N canvas 174 148 801 554 10;
#X obj 81 45 loadbang;
#X obj 81 88 f \$1;
#X msg 81 117 \$1;
#X obj 81 213 mtof;
#X obj 32 42 bng 15 250 50 0 empty empty empty 17 7 0 10 -262144 -1
-1;
#X obj 123 294 * 2;
#X obj 166 294 * 3;
#X obj 123 326 osc~;
#X obj 166 326 osc~;
#X obj 82 326 osc~;
#X obj 166 373 *~ 0.4;
#X obj 122 374 *~ 0.5;
#X obj 81 525 outlet~;
#X obj 307 50 inlet;
#X obj 358 47 inlet;
#X obj 307 170 tgl 15 0 empty empty empty 17 7 0 10 -262144 -1 -1 0
1;
#X obj 307 230 *;
#X obj 307 303 line;
#X obj 358 139 dbtorms;
#X obj 82 432 *~ 1;
#X obj 81 484 *~ 0;
#X msg 307 255 \$1 50;
#X floatatom 444 190 5 0 0 0 - - -;
#X floatatom 393 249 5 0 0 0 - - -;
#X floatatom 391 325 5 0 0 0 - - -;
#X obj 81 186 +;
#X obj 160 45 r oct;
#X obj 95 154 t b f;
#X obj 82 247 + 0;
#X obj 122 212 t b f;
#X obj 534 108 line;
#X msg 535 73 \$1 50;
#X obj 534 45 inlet;
#X obj 346 184 t b i;
#X text 634 72 inlets \; 1 on/off \; 2 vol (db) \; 3 tuning (hz);
#X connect 0 0 1 0;
#X connect 1 0 2 0;
#X connect 2 0 25 0;
#X connect 3 0 28 0;
#X connect 4 0 1 0;
#X connect 5 0 7 0;
#X connect 6 0 8 0;
#X connect 7 0 11 0;
#X connect 8 0 10 0;
#X connect 9 0 19 0;
#X connect 10 0 19 0;
#X connect 11 0 19 0;
#X connect 13 0 15 0;
#X connect 14 0 18 0;
#X connect 15 0 16 0;
#X connect 16 0 21 0;
#X connect 16 0 23 0;
#X connect 17 0 20 1;
#X connect 17 0 24 0;
#X connect 18 0 22 0;
#X connect 18 0 33 0;
#X connect 19 0 20 0;
#X connect 20 0 12 0;
#X connect 21 0 17 0;
#X connect 25 0 3 0;
#X connect 26 0 27 0;
#X connect 27 0 25 0;
#X connect 27 1 25 1;
#X connect 28 0 9 0;
#X connect 28 0 5 0;
#X connect 28 0 6 0;
#X connect 29 0 28 0;
#X connect 29 1 28 1;
#X connect 30 0 29 0;
#X connect 31 0 30 0;
#X connect 32 0 31 0;
#X connect 33 0 16 0;
#X connect 33 1 16 1;
