#N canvas 113 459 450 300 10;
#X obj 27 58 sel 1 0;
#X obj 27 21 inlet;
#X obj 27 147 pack f f;
#X obj 212 58 r vel;
#X msg 29 209 \$1 \$2;
#X obj 113 56 f \$1;
#X obj 212 19 loadbang;
#X msg 99 212 \$1 0;
#X obj 98 145 f;
#X msg 212 81 80;
#X obj 29 244 s noteout;
#X obj 113 6 r oct;
#X obj 113 83 +;
#X obj 113 31 t b f;
#X obj 27 114 f;
#X connect 0 0 14 0;
#X connect 0 1 8 0;
#X connect 1 0 0 0;
#X connect 2 0 4 0;
#X connect 3 0 2 1;
#X connect 4 0 10 0;
#X connect 5 0 12 0;
#X connect 6 0 5 0;
#X connect 6 0 9 0;
#X connect 7 0 10 0;
#X connect 8 0 7 0;
#X connect 9 0 2 1;
#X connect 11 0 13 0;
#X connect 12 0 8 1;
#X connect 12 0 14 1;
#X connect 13 0 5 0;
#X connect 13 1 12 1;
#X connect 14 0 2 0;
